<?xml version="1.0" encoding="UTF-8" standalone="no"?>
<!-- Created with Inkscape (http://www.inkscape.org/) -->

<svg
   xmlns:dc="http://purl.org/dc/elements/1.1/"
   xmlns:cc="http://creativecommons.org/ns#"
   xmlns:rdf="http://www.w3.org/1999/02/22-rdf-syntax-ns#"
   xmlns:svg="http://www.w3.org/2000/svg"
   xmlns="http://www.w3.org/2000/svg"
   xmlns:sodipodi="http://sodipodi.sourceforge.net/DTD/sodipodi-0.dtd"
   xmlns:inkscape="http://www.inkscape.org/namespaces/inkscape"
   id="svg3912"
   version="1.1"
   inkscape:version="0.91 r13725"
   width="16"
   height="16"
   sodipodi:docname="closed-rtl.svg">
  <metadata
     id="metadata3918">
    <rdf:RDF>
      <cc:Work
         rdf:about="">
        <dc:format>image/svg+xml</dc:format>
        <dc:type
           rdf:resource="http://purl.org/dc/dcmitype/StillImage" />
        <dc:title></dc:title>
      </cc:Work>
    </rdf:RDF>
  </metadata>
  <defs
     id="defs3916" />
  <sodipodi:namedview
     pagecolor="#ffffff"
     bordercolor="#666666"
     borderopacity="1"
     objecttolerance="10"
     gridtolerance="10"
     guidetolerance="10"
     inkscape:pageopacity="0"
     inkscape:pageshadow="2"
     inkscape:window-width="1366"
     inkscape:window-height="705"
     id="namedview3914"
     showgrid="false"
     inkscape:zoom="14.75"
     inkscape:cx="-3.8983051"
     inkscape:cy="8"
     inkscape:window-x="-8"
     inkscape:window-y="-8"
     inkscape:window-maximized="1"
     inkscape:current-layer="svg3912" />
  <g
     id="g3964">
    <g
       transform="matrix(0,1,-1,0,18.712,2.358)"
       id="g6423">
      <path
         style="fill:#6e6e6e;fill-opacity:1"
         d="M 5.2239464,11.08674 2.53,8.4534812 2.53,7.157507 2.53,5.861533 5.3214223,8.3660061 8.1128446,10.87048 10.827422,8.328336 13.542,5.7861926 l 0,1.4439202 0,1.4439202 -2.812053,2.522984 L 7.9178929,13.72 5.2239464,11.08674 Z"
         id="path6350"
         inkscape:connector-curvature="0" />
      <path
         style="fill:#6e6e6e"
         d="M 4.706686,10.605031 2.53,8.435233 l 0,-1.28685 0,-1.28685 L 5.3214223,8.3660061 8.1128446,10.87048 10.827422,8.328336 13.542,5.7861926 l 0,1.4558988 0,1.4558988 -2.316976,2.0384198 C 8.3005453,13.309295 7.4013537,13.291171 4.706686,10.605031 Z"
         id="path6348"
         inkscape:connector-curvature="0" />
    </g>
  </g>
</svg>
