<?xml version="1.0" encoding="UTF-8" standalone="no"?>
<!-- Created with Inkscape (http://www.inkscape.org/) -->

<svg
   xmlns:dc="http://purl.org/dc/elements/1.1/"
   xmlns:cc="http://creativecommons.org/ns#"
   xmlns:rdf="http://www.w3.org/1999/02/22-rdf-syntax-ns#"
   xmlns:svg="http://www.w3.org/2000/svg"
   xmlns="http://www.w3.org/2000/svg"
   xmlns:sodipodi="http://sodipodi.sourceforge.net/DTD/sodipodi-0.dtd"
   xmlns:inkscape="http://www.inkscape.org/namespaces/inkscape"
   width="37.5"
   height="37.5"
   viewBox="0 0 744.09449 1052.3622"
   id="svg3346"
   version="1.1"
   inkscape:version="0.91 r13725"
   sodipodi:docname="edit-icon.svg">
  <defs
     id="defs3348" />
  <sodipodi:namedview
     id="base"
     pagecolor="#ffffff"
     bordercolor="#666666"
     borderopacity="1.0"
     inkscape:pageopacity="0.0"
     inkscape:pageshadow="2"
     inkscape:zoom="14.29"
     inkscape:cx="14.000287"
     inkscape:cy="18.525418"
     inkscape:document-units="px"
     inkscape:current-layer="layer1"
     showgrid="false"
     inkscape:window-width="1366"
     inkscape:window-height="705"
     inkscape:window-x="-8"
     inkscape:window-y="-8"
     inkscape:window-maximized="1" />
  <metadata
     id="metadata3351">
    <rdf:RDF>
      <cc:Work
         rdf:about="">
        <dc:format>image/svg+xml</dc:format>
        <dc:type
           rdf:resource="http://purl.org/dc/dcmitype/StillImage" />
        <dc:title></dc:title>
      </cc:Work>
    </rdf:RDF>
  </metadata>
  <g
     inkscape:label="Layer 1"
     inkscape:groupmode="layer"
     id="layer1">
    <path
       style="fill:#cdcdcd"
       d="M -27.595681,864.08205 C -21.505171,822.58448 6.1067578,754.08397 16.6724,760.90664 l 5.707997,3.68285 60.38308,64.27695 60.382833,64.2746 -36.82723,11.50108 c -20.254807,6.32604 -61.163122,16.76425 -90.907507,23.19474 l -54.080974,11.69368 z m 557.493341,30.43048 -52.61778,-52.61806 0,-62.55039 0,-62.55038 -40.70896,-33.78613 -40.7092,-33.7838 L 284.4996,758.51638 173.13769,867.81133 101.78035,796.45413 30.422985,725.09461 140.21092,613.23074 249.99839,501.36453 201.70821,448.00387 153.41804,394.6455 l -69.587283,0 -69.587056,0 -31.570672,-31.57223 -31.57066,-31.56992 0,-64.5879 0,-64.58791 52.1240328,47.17155 52.1244932,47.17154 38.982358,-32.35197 38.982377,-32.35196 -41.514918,-63.3603 -41.514675,-63.3603 53.764363,0 53.7646,0 41.34239,41.34444 41.34262,41.34211 0,59.81437 0,59.81666 53.35967,48.2901 53.36011,48.29009 111.8656,-109.78924 111.86558,-109.7869 71.35736,71.35718 71.35715,71.3572 -109.29376,111.36263 -109.29349,111.36261 33.78547,40.70859 33.78544,40.70858 62.5509,0 62.55092,0 52.61755,52.61806 52.61779,52.61808 0,52.61807 0,52.61574 -3.38387,21.30355 c 0,0 -45.74377,-49.43988 -67.09826,-67.86713 C 674.2583,753.69847 674.2583,753.69847 674.2583,753.69847 l -71.81576,90.15229 46.73151,51.63645 46.7319,51.63877 -56.6954,0 -56.69512,0 z m -148.14867,-279.8755 -22.85905,-22.6749 -85.50409,77.27016 c -38.98189,35.22955 -88.94872,82.56587 -85.50361,85.50378 35.33999,30.14272 4.12293,59.08336 193.86675,-140.09904 z m -44.76437,-48.68922 -30.71245,-26.60376 -85.50408,77.27016 c -34.26649,30.96887 -88.73782,82.33614 -85.50362,85.50379 30.55403,29.9362 -8.22321,55.42372 201.72015,-136.17019 z m 309.81642,-224.21509 -26.7859,-28.56702 -83.54041,92.97854 c -23.17378,25.79155 -88.5808,82.18298 -85.50385,85.50379 33.37682,36.0325 9.79854,43.19165 195.83016,-149.91531 z m -52.61776,-50.65483 -24.82224,-24.6405 -85.50407,87.08878 c -44.40708,45.22918 -89.0091,82.63781 -85.50363,85.50379 39.26682,32.10599 11.77978,41.23073 195.82994,-147.95207 z m 67.98302,-66.66951 -61.06531,-65.00097 34.24059,-41.25857 34.24055,-41.256238 74.3756,71.255078 74.37528,71.25742 -29.04923,35.00212 C 749.02973,302.9108 732.17954,298.93325 662.1663,224.40838 Z"
       id="path10930"
       inkscape:connector-curvature="0"
       sodipodi:nodetypes="sscccsscscccccccccccccccccccccccccccccccccccccccccccccccccscccccccccsscccsscccsscccsscscccccss" />
  </g>
</svg>
