<?xml version="1.0" encoding="UTF-8" standalone="no"?>
<!-- Generator: Adobe Illustrator 18.0.0, SVG Export Plug-In . SVG Version: 6.00 Build 0)  -->

<svg
   xmlns:dc="http://purl.org/dc/elements/1.1/"
   xmlns:cc="http://creativecommons.org/ns#"
   xmlns:rdf="http://www.w3.org/1999/02/22-rdf-syntax-ns#"
   xmlns:svg="http://www.w3.org/2000/svg"
   xmlns="http://www.w3.org/2000/svg"
   xmlns:sodipodi="http://sodipodi.sourceforge.net/DTD/sodipodi-0.dtd"
   xmlns:inkscape="http://www.inkscape.org/namespaces/inkscape"
   version="1.1"
   id="Layer_1"
   x="0px"
   y="0px"
   viewBox="0 0 612 792"
   enable-background="new 0 0 612 792"
   xml:space="preserve"
   inkscape:version="0.48.5 r10040"
   width="1"
   height="40"
   sodipodi:docname="line.svg"><metadata
   id="metadata3962"><rdf:RDF><cc:Work
       rdf:about=""><dc:format>image/svg+xml</dc:format><dc:type
         rdf:resource="http://purl.org/dc/dcmitype/StillImage" /></cc:Work></rdf:RDF></metadata><defs
   id="defs3960" /><sodipodi:namedview
   pagecolor="#ffffff"
   bordercolor="#666666"
   borderopacity="1"
   objecttolerance="10"
   gridtolerance="10"
   guidetolerance="10"
   inkscape:pageopacity="0"
   inkscape:pageshadow="2"
   inkscape:window-width="1366"
   inkscape:window-height="705"
   id="namedview3958"
   showgrid="false"
   inkscape:zoom="5.9"
   inkscape:cx="50.571815"
   inkscape:cy="-5.2542373"
   inkscape:window-x="-8"
   inkscape:window-y="-8"
   inkscape:window-maximized="1"
   inkscape:current-layer="g3954" />

<g
   id="g3952"
   transform="matrix(0.40091001,0,0,1.0042214,0.07273454,771.01177)">
	<g
   id="g3954"
   transform="matrix(611.99999,0,0,611.99998,110.84983,-975.68765)">
		<path
   d="m -0.421541,1.5479008 c 0,-2.9000001 -0.1,-5.8000001 0.1,-8.7000001 0,-0.4 -1,-1.2 0.8,-1.3 2.3,-0.1500001 1.1,0.8 1.1,1.15 0,5.8 0,11.6000001 0,17.4000003 0,0.45 1,1.35 -0.9,1.35 -2.2,0 -0.9,-1 -0.9,-1.4500002 -0.3,-2.8 -0.2,-5.65 -0.2,-8.45 z"
   id="path3956"
   inkscape:connector-curvature="0"
   style="fill:#fefefe" />
	</g>
</g></svg>