<?xml version="1.0" encoding="UTF-8" standalone="no"?>
<!-- Created with Inkscape (http://www.inkscape.org/) -->

<svg
   xmlns:dc="http://purl.org/dc/elements/1.1/"
   xmlns:cc="http://creativecommons.org/ns#"
   xmlns:rdf="http://www.w3.org/1999/02/22-rdf-syntax-ns#"
   xmlns:svg="http://www.w3.org/2000/svg"
   xmlns="http://www.w3.org/2000/svg"
   xmlns:sodipodi="http://sodipodi.sourceforge.net/DTD/sodipodi-0.dtd"
   xmlns:inkscape="http://www.inkscape.org/namespaces/inkscape"
   id="svg2985"
   version="1.1"
   inkscape:version="0.91 r13725"
   width="26"
   height="40"
   sodipodi:docname="uploadlogo.svg">
  <metadata
     id="metadata2991">
    <rdf:RDF>
      <cc:Work
         rdf:about="">
        <dc:format>image/svg+xml</dc:format>
        <dc:type
           rdf:resource="http://purl.org/dc/dcmitype/StillImage" />
        <dc:title></dc:title>
      </cc:Work>
    </rdf:RDF>
  </metadata>
  <defs
     id="defs2989" />
  <sodipodi:namedview
     pagecolor="#ffffff"
     bordercolor="#666666"
     borderopacity="1"
     objecttolerance="10"
     gridtolerance="10"
     guidetolerance="10"
     inkscape:pageopacity="0"
     inkscape:pageshadow="2"
     inkscape:window-width="1366"
     inkscape:window-height="705"
     id="namedview2987"
     showgrid="false"
     inkscape:zoom="12.95"
     inkscape:cx="-0.55212355"
     inkscape:cy="15.664896"
     inkscape:window-x="-8"
     inkscape:window-y="-8"
     inkscape:window-maximized="1"
     inkscape:current-layer="svg2985" />
  <g
     id="g10564"
     style="fill:#ffffff">
    <path
       sodipodi:nodetypes="ssssssss"
       inkscape:connector-curvature="0"
       id="path3025"
       d="M 3.6736487,29.135119 C -2.1539453,23.423119 -0.1704381,12.512868 6.401262,8.9608382 15.458885,4.0651576 26,9.711877 26,19.914181 26,31.603607 12.064165,37.359203 3.6736487,29.135119 Z M 20.512,26.713457 C 29.839882,17.582256 15.735239,3.5842143 6.2148717,12.524381 2.3755127,16.129758 1.5534857,19.848931 3.6423367,24.163543 6.9296217,30.95357 14.943203,32.164834 20.512,26.713457 Z"
       style="fill:#ffffff" />
    <path
       inkscape:connector-curvature="0"
       id="path5201"
       d="m 8.8572622,13.679 q 0.1345238,-0.375 0.5380952,-0.5 0.4035726,-0.125 0.9416666,-0.125 0.538094,0 1.076188,0 0.5381,0 1.076194,0 0.538094,0 1.076188,0 0.538094,0 1.076194,0 0.538094,0 1.076188,0 0.538094,0 0.941666,0.125 0.403572,0.125 0.538094,0.5 0.134528,0.375 0,0.75 -0.134522,0.375 -0.538094,0.5 -0.403572,0.125 -0.941666,0.125 -0.538094,0 -1.076188,0 -0.5381,0 -1.076194,0 -0.538094,0 -1.076188,0 -0.538094,0 -1.076194,0 -0.538094,0 -1.076188,0 -0.538094,0 -0.9416666,-0.125 -0.4035714,-0.125 -0.5380952,-0.5 -0.1345244,-0.375 0,-0.75"
       style="fill:#ffffff;fill-opacity:1" />
    <g
       id="g10550"
       style="fill:#ffffff">
      <path
         style="fill:#ffffff;fill-opacity:1"
         d="m 12.21674,17.918357 c 0.08325,-0.229882 0.249766,-0.383138 0.499531,-0.459768 0.249765,-0.07663 0.499531,-0.07663 0.749296,0 0.249765,0.07663 0.416274,0.229886 0.499528,0.459768 0.08326,0.229886 0.249768,0.383142 0.499535,0.45977 0.249764,0.07663 0.416274,0.229882 0.499531,0.459764 0.08325,0.229891 0.249761,0.383151 0.499525,0.45978 0.249767,0.07663 0.416277,0.229884 0.49953,0.459771 0.08326,0.229884 0.291396,0.344827 0.624416,0.344827 l 0.49953,0 0,0.45977 -0.0415,0.999216 -0.207515,0.419935 -0.125633,-0.154784 c -0.161157,-0.19855 -0.416273,-0.229886 -0.49953,-0.459778 -0.08325,-0.229882 -0.249763,-0.383136 -0.49953,-0.459763 -0.249764,-0.07663 -0.416272,-0.229884 -0.499525,-0.459768 -0.08326,-0.229886 -0.291396,-0.344828 -0.624416,-0.344828 -0.33302,0 -0.541158,0.114942 -0.624415,0.344828 -0.08325,0.229884 -0.03642,0.43582 0.140495,0.617811 l 0.265377,0.272997 0.04683,-0.04306 0.04684,-0.04306 -0.09366,0.08619 c -0.06244,0.05746 -0.114476,0.143669 -0.156103,0.258615 l -0.06244,0.172412 0.09366,-0.258622 0.09366,-0.258615 -0.12488,0.344825 c -0.08326,0.229884 -0.124885,0.498085 -0.124885,0.804603 l 0,0.919533 0,0.919545 0,0.919534 0,0.919539 c 0,0.306518 -0.04163,0.574722 -0.12488,0.804612 -0.08326,0.229881 -0.249767,0.383136 -0.499531,0.459763 -0.249765,0.07663 -0.49953,0.07663 -0.749295,0 -0.249766,-0.07663 -0.416276,-0.229882 -0.499531,-0.459763 -0.08326,-0.22989 -0.124882,-0.498094 -0.124882,-0.804612 l 0,-0.919539 0,-0.919534 0,-0.919545 0,-0.919533 c 0,-0.306518 -0.04163,-0.574719 -0.124883,-0.804603 l -0.124883,-0.344895 0.09366,0.258621 0.09366,0.258622 -0.06244,-0.172417 c -0.04163,-0.114942 -0.09366,-0.201147 -0.156104,-0.258616 l -0.09366,-0.0862 0.04682,0.04306 -0.493721,-0.729141 0.805917,0.499214 c 0.176924,-0.181978 0.223758,-0.38791 0.140503,-0.617795 -0.08325,-0.229885 -0.291392,-0.344827 -0.624413,-0.344827 -0.33302,0 -0.541158,0.114942 -0.624413,0.344827 -0.08325,0.229885 -0.249765,0.383142 -0.49953,0.459772 -0.249766,0.07663 -0.416276,0.229881 -0.4995309,0.459765 -0.083255,0.229887 -0.2497652,0.383144 -0.4995304,0.459769 l -0.3746479,0.114946 0,-0.459775 0,-0.919535 0,-0.459769 0.4995305,0 c 0.3330203,0 0.5411577,-0.114942 0.6244127,-0.344826 0.08326,-0.229887 0.249766,-0.383144 0.499531,-0.459772 0.249765,-0.07663 0.416275,-0.229888 0.49953,-0.459772 0.08325,-0.229886 0.249766,-0.383142 0.499531,-0.459769 0.249765,-0.07663 0.416275,-0.229883 0.49953,-0.459767"
         id="path5245-6"
         inkscape:connector-curvature="0"
         sodipodi:nodetypes="cccsscccsccccsscssscccccscccsscccscsscscccsccccscccccssscscccccsscssc" />
      <path
         style="fill:#ffffff;fill-opacity:1;fill-rule:nonzero;stroke:none"
         d="m 12.091858,17.005706 q 0.249765,-0.229885 0.624413,-0.344827 0.374648,-0.114941 0.749296,0 0.374647,0.114942 0.624413,0.344827 0.249765,0.22989 0.49953,0.459772 0.249765,0.229886 0.499531,0.459774 0.249765,0.229881 0.49953,0.45977 0.249765,0.229876 0.49953,0.459771 0.249766,0.229884 0.499531,0.459765 0.249765,0.229888 0.374644,0.574717 l 0.124886,0.344827 -0.49953,0 q -0.499531,0 -0.624416,-0.344827 -0.12488,-0.344829 -0.49953,-0.459773 -0.374645,-0.114944 -0.499525,-0.459769 -0.124886,-0.344835 -0.499531,-0.459774 -0.37465,-0.114937 -0.499535,-0.459767 -0.124881,-0.344828 -0.499528,-0.459767 -0.374648,-0.114947 -0.749296,0 -0.374648,0.114939 -0.499531,0.459767 -0.124882,0.34483 -0.49953,0.459767 -0.374648,0.114939 -0.499531,0.459774 -0.124882,0.344825 -0.49953,0.459769 -0.374648,0.114944 -0.49953,0.459773 -0.124883,0.344827 -0.6244135,0.344827 l -0.4995305,0 0.1248826,-0.344827 q 0.1248826,-0.344829 0.3746479,-0.574717 0.2497652,-0.229881 0.4995305,-0.459765 0.249765,-0.229895 0.49953,-0.459771 0.249766,-0.229889 0.499531,-0.45977 0.249765,-0.229888 0.49953,-0.459774 0.249766,-0.229882 0.499531,-0.459772"
         id="path5235-9"
         inkscape:connector-curvature="0" />
      <path
         style="fill:#ffffff;fill-opacity:1;stroke:none"
         d="m 10.960404,20.25116 c 0.08325,-0.229886 0.291393,-0.344829 0.624414,-0.344829 0.33302,0 0.541157,0.114943 0.624412,0.344829 0.08325,0.229885 0.356154,0.663455 0.108526,0.737335 l -0.514393,0.15347 0.04682,0.04305 0.04682,0.04306 -0.09366,-0.08619 c -0.06244,-0.05743 -0.135279,-0.08614 -0.218534,-0.08614 l -0.124883,0 0.187324,0 0.187324,0 -0.249765,0 c -0.16651,0 -0.33302,0.07663 -0.499531,0.22989 l -0.49953,0.45977 -0.499531,0.459767 c -0.1665099,0.15326 -0.33302,0.22989 -0.4995301,0.22989 -0.1665102,0 -0.2913928,-0.114943 -0.3746479,-0.344827 l -0.1248826,-0.34483 0.3746479,-0.114942 c 0.2497652,-0.07663 0.4162753,-0.229887 0.4995302,-0.459773 0.083255,-0.229885 0.2497655,-0.383141 0.4995305,-0.459767 0.249765,-0.07663 0.416276,-0.229889 0.499531,-0.459772"
         id="path5259-1"
         inkscape:connector-curvature="0"
         sodipodi:nodetypes="csssccccscccssccsscsscc" />
      <path
         style="fill:#ffffff;fill-opacity:1"
         d="m 13.931105,20.193148 c 0.08325,-0.229883 0.291392,-0.344824 0.624412,-0.344824 0.33302,0 0.541158,0.114941 0.624414,0.344824 0.08325,0.229883 0.249765,0.383141 0.49953,0.459775 0.249764,0.07663 0.416275,0.229884 0.49953,0.459768 0.08326,0.229886 0.249765,0.383141 0.499531,0.459767 l 0.374646,0.114944 -0.124881,0.344825 c -0.08326,0.22989 -0.208139,0.344834 -0.374649,0.344834 -0.16651,0 -0.33302,-0.07663 -0.49953,-0.229886 l -0.49953,-0.459773 -0.499531,-0.459766 c -0.16651,-0.153258 -0.33302,-0.229887 -0.49953,-0.229887 l -0.249766,0 0.187324,0 0.187325,0 -1.203962,1.195204 c -0.05787,0.05745 0.922976,-1.166473 0.860535,-1.109009 l -0.09366,0.0862 0.04683,-0.04306 0.04683,-0.04306 -0.721907,2.316612 c -0.176916,-0.182034 0.232788,-2.977603 0.316043,-3.207486"
         id="path5261-8"
         inkscape:connector-curvature="0"
         sodipodi:nodetypes="csscsccssscsscccscccccc" />
    </g>
  </g>
</svg>
