<?xml version="1.0" encoding="UTF-8" standalone="no"?>
<!-- Created with Inkscape (http://www.inkscape.org/) -->

<svg
   xmlns:dc="http://purl.org/dc/elements/1.1/"
   xmlns:cc="http://creativecommons.org/ns#"
   xmlns:rdf="http://www.w3.org/1999/02/22-rdf-syntax-ns#"
   xmlns:svg="http://www.w3.org/2000/svg"
   xmlns="http://www.w3.org/2000/svg"
   xmlns:sodipodi="http://sodipodi.sourceforge.net/DTD/sodipodi-0.dtd"
   xmlns:inkscape="http://www.inkscape.org/namespaces/inkscape"
   width="20.129"
   height="21.445"
   viewBox="0 0 744.09449 1052.3622"
   id="svg3396"
   version="1.1"
   inkscape:version="0.91 r13725"
   sodipodi:docname="user-icon-20.svg">
  <defs
     id="defs3398" />
  <sodipodi:namedview
     id="base"
     pagecolor="#ffffff"
     bordercolor="#666666"
     borderopacity="1.0"
     inkscape:pageopacity="0.0"
     inkscape:pageshadow="2"
     inkscape:zoom="12.59"
     inkscape:cx="11.114972"
     inkscape:cy="7.5505425"
     inkscape:document-units="px"
     inkscape:current-layer="layer1"
     showgrid="false"
     inkscape:window-width="1366"
     inkscape:window-height="705"
     inkscape:window-x="-8"
     inkscape:window-y="-8"
     inkscape:window-maximized="1" />
  <metadata
     id="metadata3401">
    <rdf:RDF>
      <cc:Work
         rdf:about="">
        <dc:format>image/svg+xml</dc:format>
        <dc:type
           rdf:resource="http://purl.org/dc/dcmitype/StillImage" />
        <dc:title />
      </cc:Work>
    </rdf:RDF>
  </metadata>
  <g
     inkscape:label="Layer 1"
     inkscape:groupmode="layer"
     id="layer1">
    <g
       id="g6066"
       transform="matrix(63.919959,0,0,64.5868,-23484.589,-25520.824)">
      <g
         id="g6068">
        <path
           d="m 380.4,410.3 c -0.3,0.5 0.7,0.47316 -0.7,0.37316 -1.1,0 0.83461,0.60676 -0.26539,0.60676 -4.6,-0.1 -8.95318,0.0734 -13.55318,-0.0266 6.46934,-18.04804 -5.54394,-7.38971 4.31857,-8.15328 1.8,0.7 3.6,1.2 5.4,0 2.5,0 3.2,1.9 3.9,3.8 0.3,1 -0.1,2.4 0.9,3.4 z"
           id="path6070"
           inkscape:connector-curvature="0"
           style="fill:#fdfdfd;fill-opacity:1"
           sodipodi:nodetypes="ccccccccc" />
        <path
           d="m 380.36825,411.44505 c -1.07902,0.1 -0.62093,0.17058 -1.2367,-1.71886 -0.5,-1.9 -1.53155,-6.02619 -3.93155,-5.92619 -0.3,-0.2 -0.5,-0.5 -0.6,-0.8 -0.1,-0.6 -0.1,-1.2 -0.1,-1.8 0,-1.2 -0.4,-2.3 -1.8,-2.3 -1.8,0 -1.7,1.4 -1.6,2.6 0,0.5 0.1,1 0.1,1.5 -0.1,0.3 -0.3,0.6 -0.5,0.9 -4.6,0 -3.28255,8.93946 -5.2,7.4 l 0,-16.07336 c 4.4133,0 9.15789,-0.0656 13.5,-0.0867 2.0007,0 2.39603,-0.163 1.95343,1.76038 0.0358,4.73579 0.12053,10.37183 0.10866,14.54505 z"
           id="path6072"
           inkscape:connector-curvature="0"
           style="fill:#474747"
           sodipodi:nodetypes="ccccssccccccccc" />
        <path
           d="m 370.6,403.7 c 0,-0.3 0,-0.7 0.1,-1 1.5,-0.4 2.9,-0.3 4.4,-0.1 0,0.4 0.1,0.7 0.1,1.1 -1.5,1.7 -3,1.7 -4.6,0 z"
           id="path6074"
           style="fill:#474747;fill-opacity:1"
           inkscape:connector-curvature="0" />
        <path
           d="m 375.1,402.6 c -1.4,1.1 -2.9,1 -4.4,0.1 -1,-1.7 -1.3,-3.5 0.4,-4.9 0.9,-0.8 2.2,-0.7 3.1,0 1.7,1.2 1.7,3 0.9,4.8 z"
           id="path6076"
           style="fill:#fdfdfd;fill-opacity:1"
           inkscape:connector-curvature="0" />
      </g>
    </g>
  </g>
</svg>
